<?xml version="1.0" encoding="utf-8"?>
<svg version="1.1" xmlns:xlink="http://www.w3.org/1999/xlink" width="19px" height="19px" xmlns="http://www.w3.org/2000/svg">
  <g transform="matrix(1 0 0 1 -12 -16 )">
    <path d="M 16.625 19  L 2.375 19  C 1.71 19  1.1400000000000001 18.81  0.6650000000000001 18.335  C 0.19000000000000017 17.86  0 17.29  0 16.625  L 0 14.25  L 2.375 14.25  L 2.375 16.625  L 16.625 16.625  L 16.625 5  L 2.375 5  L 2.375 7.125  L 0 7.125  L 0 2.375  C 0 1.71  0.19000000000000017 1.1400000000000001  0.6650000000000001 0.6650000000000001  C 1.1400000000000001 0.19000000000000017  1.71 0  2.375 0  L 16.625 0  C 17.29 0  17.86 0.19000000000000017  18.335 0.6650000000000001  C 18.81 1.1400000000000001  19 1.71  19 2.375  L 19 16.625  C 19 17.29  18.81 17.86  18.335 18.335  C 17.86 18.81  17.29 19  16.625 19  Z M 13.110000000000001 10.639999999999999  L 8.264999999999999 15.485000000000001  L 6.6499999999999995 13.775  L 8.55 11.875  L 0 11.875  L 0 9.5  L 8.55 9.5  L 6.6499999999999995 7.6000000000000005  L 8.360000000000001 5.889999999999999  L 13.110000000000001 10.639999999999999  Z " fill-rule="nonzero" fill="#7fc8bf" stroke="none" transform="matrix(1 0 0 1 12 16 )" />
  </g>
</svg>