<svg width="24" height="24" viewBox="0 0 24 24" stroke="currentColor" fill="none" xmlns="http://www.w3.org/2000/svg">
<path d="M5.5 14.5C2.5 15.5 2 16.5195 2 18C2 20.2092 6.47715 22 12 22C17.5228 22 22 20.2092 22 18C22 16.5195 20.489 15.2268 17.5 14.5352" stroke-width="2"/>
<path d="M5.49998 18C5.49998 18 5.22179 11.6942 7.49995 7C8.85069 4.21674 11.4416 2 11.9999 2M18.5 18C18.5 18 16.7781 11.6942 14.4999 7" stroke-width="2" stroke-linecap="round"/>
<path d="M21 7.5C17.8673 4.81742 15.9029 3.60277 12 2" stroke-width="2" stroke-linecap="round"/>
<path d="M14.5 7C16.9665 6.63818 18.3889 6.74091 21 7.5" stroke-width="2" stroke-linecap="round"/>
</svg>
